<?xml version="1.0" encoding="UTF-8" standalone="no"?>
<!-- Created with Inkscape (http://www.inkscape.org/) -->

<svg
   width="512"
   height="512"
   viewBox="0 0 135.46667 135.46667"
   version="1.1"
   id="svg5"
   inkscape:version="1.2.2 (732a01da63, 2022-12-09)"
   sodipodi:docname="student-role.svg"
   xml:space="preserve"
   xmlns:inkscape="http://www.inkscape.org/namespaces/inkscape"
   xmlns:sodipodi="http://sodipodi.sourceforge.net/DTD/sodipodi-0.dtd"
   xmlns="http://www.w3.org/2000/svg"
   xmlns:svg="http://www.w3.org/2000/svg"><sodipodi:namedview
     id="namedview7"
     pagecolor="#505050"
     bordercolor="#eeeeee"
     borderopacity="1"
     inkscape:showpageshadow="0"
     inkscape:pageopacity="0"
     inkscape:pagecheckerboard="0"
     inkscape:deskcolor="#505050"
     inkscape:document-units="px"
     showgrid="true"
     inkscape:zoom="1.9527774"
     inkscape:cx="225.32011"
     inkscape:cy="275.76108"
     inkscape:window-width="2880"
     inkscape:window-height="1526"
     inkscape:window-x="6469"
     inkscape:window-y="-11"
     inkscape:window-maximized="1"
     inkscape:current-layer="layer1"><inkscape:grid
       type="xygrid"
       id="grid126"
       originx="0"
       originy="0" /></sodipodi:namedview><defs
     id="defs2" /><g
     inkscape:label="Ebene 1"
     inkscape:groupmode="layer"
     id="layer1"><path
       style="fill:#020202;stroke:none;stroke-width:0.248706"
       d="m 17.834721,18.456037 c 12.865784,5.32941 49.989807,14.727593 49.989807,14.727593 0,0 23.512868,-6.448611 33.326542,-9.753484 v 24.870551 h 7.46115 c -0.25471,-26.00099 -3.90565,-24.405172 8.70471,-29.84466 C 104.41434,12.890529 67.575822,3.6165042 67.575822,3.6165042 67.143797,3.6437493 30.711945,12.901472 17.834721,18.456037 M 41.461744,33.627072 V 48.300697 H 93.689902 V 33.627072 C 85.47093,35.456799 75.98356,41.0283 67.575822,40.973833 59.061639,40.918621 49.812279,35.364032 41.461744,33.627072 m 23.467472,49.180013 c -3.871599,4.442129 -19.84831,3.048146 -25.208411,3.048146 5.959482,9.099636 13.649207,17.372329 20.443593,25.865369 1.429062,1.78621 4.916411,8.0399 7.412419,8.0399 2.528341,0 6.016932,-6.23578 7.460171,-8.0399 6.787173,-8.48383 14.441086,-16.776179 20.393852,-25.865369 -5.31036,0 -21.014162,1.522824 -24.762651,-2.984466 M 3.9072091,130.62223 H 65.586178 C 58.428932,119.17008 48.408586,108.83935 39.969511,98.2905 37.862725,95.657212 33.945611,88.375861 30.450552,87.774243 11.362932,84.489091 6.2361643,118.93381 3.9072091,130.62223 m 65.6582579,0 h 61.678973 c -2.33659,-11.72647 -7.45769,-46.091854 -26.55952,-42.847987 -3.52515,0.598882 -7.432063,7.865559 -9.552527,10.516257 -8.438329,10.54811 -18.408684,20.87785 -25.566926,32.33173 z"
       id="path424"
       sodipodi:nodetypes="cccccccccccccccccsccccccccccccc" /><rect
       style="fill:none;stroke-width:0.248706"
       id="rect700"
       width="83.032593"
       height="33.681335"
       x="27.342743"
       y="52.624928"
       inkscape:label="rect700" /><path
       style="fill:#000000;stroke-width:0.248706"
       id="path871"
       sodipodi:type="arc"
       sodipodi:cx="67.868416"
       sodipodi:cy="57.127777"
       sodipodi:rx="23.054604"
       sodipodi:ry="23.054604"
       sodipodi:start="0"
       sodipodi:end="3.1415927"
       sodipodi:open="true"
       sodipodi:arc-type="arc"
       d="M 90.923019,57.127777 A 23.054604,23.054604 0 0 1 79.395717,77.09365 23.054604,23.054604 0 0 1 56.341113,77.093649 23.054604,23.054604 0 0 1 44.813812,57.127777" /></g></svg>
