<?xml version="1.0" encoding="UTF-8" standalone="no"?>
<!-- Created with Inkscape (http://www.inkscape.org/) -->

<svg
   width="512"
   height="512"
   viewBox="0 0 135.46667 135.46667"
   version="1.1"
   id="svg5"
   inkscape:version="1.2.2 (732a01da63, 2022-12-09)"
   sodipodi:docname="teacher-role.svg"
   xml:space="preserve"
   xmlns:inkscape="http://www.inkscape.org/namespaces/inkscape"
   xmlns:sodipodi="http://sodipodi.sourceforge.net/DTD/sodipodi-0.dtd"
   xmlns="http://www.w3.org/2000/svg"
   xmlns:svg="http://www.w3.org/2000/svg"><sodipodi:namedview
     id="namedview7"
     pagecolor="#505050"
     bordercolor="#eeeeee"
     borderopacity="1"
     inkscape:showpageshadow="0"
     inkscape:pageopacity="0"
     inkscape:pagecheckerboard="0"
     inkscape:deskcolor="#505050"
     inkscape:document-units="px"
     showgrid="true"
     inkscape:zoom="1.9527774"
     inkscape:cx="386.62881"
     inkscape:cy="243.49934"
     inkscape:window-width="2880"
     inkscape:window-height="1526"
     inkscape:window-x="3589"
     inkscape:window-y="-11"
     inkscape:window-maximized="1"
     inkscape:current-layer="layer1"><inkscape:grid
       type="xygrid"
       id="grid126"
       originx="0"
       originy="0" /></sodipodi:namedview><defs
     id="defs2" /><g
     inkscape:label="Ebene 1"
     inkscape:groupmode="layer"
     id="layer1"><path
       style="fill:#000000;stroke-width:0.136734"
       d="m 64.966955,133.59434 c -0.731901,-0.2526 -3.883621,-1.33337 -7.003826,-2.40173 -3.120203,-1.06837 -6.713167,-2.30367 -7.984362,-2.74507 -1.271195,-0.44142 -2.468849,-0.85204 -2.661453,-0.91248 -0.192607,-0.0605 -0.885985,-0.2965 -1.540843,-0.52461 -0.654856,-0.22812 -1.884029,-0.645 -2.731492,-0.92643 -1.561544,-0.51851 -13.801852,-4.71215 -14.252785,-4.88312 -0.214795,-0.0816 -0.245134,-0.29513 -0.245134,-1.72648 v -1.63353 l 1.061368,-0.22221 c 11.048146,-2.31318 11.103954,-13.7346 0.09439,-19.320243 l -1.155495,-0.586224 -1.36e-4,-11.956854 c -7.7e-5,-6.57627 0.03459,-11.989957 0.07706,-12.030416 0.04247,-0.04046 0.404909,0.04652 0.80544,0.193283 0.400528,0.146767 1.673751,0.585392 2.829383,0.974723 1.155631,0.389331 4.46494,1.516769 7.354018,2.505416 2.889077,0.988647 7.83728,2.679512 10.996005,3.757474 3.158726,1.077964 6.058311,2.072978 6.443522,2.21114 0.602545,0.216114 2.828684,0.974227 7.914323,2.695232 0.654856,0.221607 1.238099,0.444096 1.296093,0.494421 0.05799,0.05032 0.08951,10.757725 0.07005,23.794238 l -0.03541,23.70273 z m 4.937312,-23.26946 0.0354,-23.787271 0.490268,-0.176946 c 0.269647,-0.09731 1.656404,-0.574782 3.081683,-1.061025 1.425278,-0.486245 3.095691,-1.056573 3.712027,-1.267395 14.285069,-4.886328 17.924918,-6.130496 19.330561,-6.607549 0.924504,-0.313762 2.500366,-0.852499 3.501914,-1.197192 1.00155,-0.344693 2.76653,-0.944995 3.92215,-1.334006 1.15562,-0.389011 2.42885,-0.827628 2.82938,-0.974705 0.40053,-0.147077 0.76298,-0.234309 0.80544,-0.193848 0.0424,0.04046 0.0763,5.454146 0.0753,12.030416 l -0.002,11.956854 -1.15367,0.584584 c -11.088957,5.619073 -10.920635,17.174783 0.28212,19.368003 l 0.87547,0.1714 v 1.63588 c 0,1.4336 -0.0303,1.64737 -0.24512,1.72882 -0.31813,0.1206 -12.139946,4.1743 -14.602988,5.00732 -3.613342,1.2221 -3.996037,1.35293 -4.692563,1.60415 -0.385211,0.13893 -1.708934,0.59088 -2.941607,1.00429 -3.219192,1.07965 -14.036615,4.80916 -15.09363,5.2038 -0.233497,0.0872 -0.243786,-1.07316 -0.210115,-23.69558 z m -45.209311,4.54206 c -7.915309,-2.24254 -12.174751,-5.29297 -13.03306,-9.3337 -0.388002,-1.82664 0.44707,-7.657887 1.750782,-12.225602 0.474203,-1.661427 0.715535,-2.516945 0.982822,-3.48409 1.845879,-6.679079 7.670461,-19.961499 10.581357,-24.129799 4.932721,-7.063489 13.964874,-10.810017 29.344282,-12.171974 0.34669,-0.03069 1.418275,-0.13729 2.381302,-0.236864 0.963025,-0.09957 1.769987,-0.16645 1.793248,-0.148614 0.04058,0.03112 0.538314,1.259925 2.755722,6.803385 3.5964,8.990917 6.412776,15.957648 6.634216,16.410739 l 0.257851,0.527589 0.927701,-2.262722 c 0.510234,-1.2445 2.659831,-6.578632 4.776879,-11.853629 4.554072,-11.347264 2.838421,-9.873928 10.449457,-8.973594 16.234035,1.920377 23.839445,5.822973 28.635435,14.693814 6.8713,12.709434 12.80207,31.592341 11.64033,37.061551 -0.87448,4.11688 -5.93068,7.61345 -13.75544,9.51245 -3.32019,0.80577 -7.60157,-1.03834 -8.95616,-3.85767 -1.980773,-4.12255 0.4854,-8.03739 6.85231,-10.87744 l 1.49768,-0.668054 V 84.96823 c 0,-11.001773 -0.0405,-14.684482 -0.16155,-14.684482 -0.14464,0 -3.42022,1.086107 -5.23139,1.734614 -0.38522,0.137927 -2.11865,0.730429 -3.85212,1.316673 -2.593337,0.877055 -6.453884,2.19292 -10.995997,3.747983 -0.38521,0.131883 -3.726035,1.272522 -7.424054,2.534754 -7.624613,2.602482 -9.923315,3.390381 -10.92597,3.744956 -1.970091,0.696701 -3.524335,1.159086 -3.712027,1.104325 -0.356839,-0.10411 -2.553092,-0.841782 -3.291798,-1.105636 -0.385212,-0.137592 -1.614382,-0.56112 -2.731493,-0.941175 C 60.768162,82.04019 59.507473,81.61081 59.083741,81.46607 58.66001,81.321328 56.233183,80.493361 53.690796,79.626138 51.148407,78.758917 47.492409,77.509158 45.566357,76.848897 42.358826,75.749335 36.118176,73.618333 33.3797,72.687501 c -0.616337,-0.209498 -2.449346,-0.836047 -4.073354,-1.392328 -1.624007,-0.556285 -3.026524,-1.011425 -3.116702,-1.011425 -0.124236,0 -0.163961,3.557756 -0.163961,14.684482 v 14.684486 l 1.497679,0.668054 c 6.563092,2.92758 8.953788,6.96184 6.670183,11.25582 -1.467223,2.7589 -5.924546,4.30295 -9.498589,3.29035 z M 64.811408,50.327351 C 35.760869,46.549538 35.137731,6.5923474 64.056457,1.9178708 75.774746,0.02370515 89.60504,7.7632428 92.22191,17.67947 c 0.03144,0.119123 0.209903,0.637023 0.396595,1.150891 5.928932,16.319299 -9.565015,33.869238 -27.807097,31.49699 z"
       id="path377" /><path
       style="fill:#000000;stroke-width:0.32651"
       id="path381"
       sodipodi:type="arc"
       sodipodi:cx="68.307518"
       sodipodi:cy="25.846581"
       sodipodi:rx="25.677479"
       sodipodi:ry="24.46677"
       sodipodi:start="0"
       sodipodi:end="6.2766425"
       sodipodi:open="true"
       sodipodi:arc-type="arc"
       d="M 93.984997,25.846581 A 25.677479,24.46677 0 0 1 68.349519,50.313318 25.677479,24.46677 0 0 1 42.630177,25.926621 25.677479,24.46677 0 0 1 68.181516,1.3801049 25.677479,24.46677 0 0 1 93.984447,25.6865" /></g></svg>
